<svg width="42" height="42" viewBox="0 0 42 42" fill="none" xmlns="http://www.w3.org/2000/svg">
<g clip-path="url(#clip0_1_770)">
<path d="M19.7455 41.0047C19.9711 41.3431 20.3509 41.5464 20.7576 41.5464C21.1642 41.5464 21.544 41.3432 21.7696 41.0047C24.648 36.6873 28.8876 31.3551 31.842 25.9321C34.2043 21.596 35.3527 17.8979 35.3527 14.6265C35.3527 6.57869 28.8053 0.031311 20.7576 0.031311C12.7098 0.031311 6.16241 6.57869 6.16241 14.6265C6.16241 17.8979 7.31081 21.596 9.67311 25.9321C12.6253 31.351 16.8731 36.6962 19.7455 41.0047ZM20.7576 2.46384C27.464 2.46384 32.9202 7.91999 32.9202 14.6265C32.9202 17.4809 31.8688 20.7984 29.7059 24.7684C27.1593 29.4428 23.5253 34.1845 20.7576 38.1708C17.9902 34.1851 14.356 29.443 11.8092 24.7684C9.64636 20.7984 8.59494 17.4809 8.59494 14.6265C8.59494 7.91999 14.0511 2.46384 20.7576 2.46384V2.46384Z" fill="#0EA57A"/>
<path d="M20.7574 21.9241C24.7812 21.9241 28.0549 18.6504 28.0549 14.6265C28.0549 10.6026 24.7812 7.32892 20.7574 7.32892C16.7335 7.32892 13.4598 10.6026 13.4598 14.6265C13.4598 18.6504 16.7335 21.9241 20.7574 21.9241ZM20.7574 9.76144C23.4399 9.76144 25.6224 11.9439 25.6224 14.6265C25.6224 17.3091 23.4399 19.4915 20.7574 19.4915C18.0748 19.4915 15.8923 17.3091 15.8923 14.6265C15.8923 11.9439 18.0748 9.76144 20.7574 9.76144Z" fill="#0EA57A"/>
</g>
<defs>
<clipPath id="clip0_1_770">
<rect width="41.5151" height="41.5151" fill="white" transform="translate(0 0.031311)"/>
</clipPath>
</defs>
</svg>
