<svg width="33" height="33" viewBox="0 0 33 33" fill="none" xmlns="http://www.w3.org/2000/svg">
<g clip-path="url(#clip0_1_756)">
<path d="M32.6874 31.2047L24.1673 22.8207C26.3985 20.3967 27.7693 17.1908 27.7693 13.6631C27.7683 6.11671 21.5525 0 13.8844 0C6.21628 0 0.000518799 6.11671 0.000518799 13.6631C0.000518799 21.2095 6.21628 27.3262 13.8844 27.3262C17.1975 27.3262 20.2363 26.1803 22.6232 24.2751L31.1763 32.6921C31.5931 33.1026 32.2697 33.1026 32.6864 32.6921C33.1041 32.2816 33.1041 31.6152 32.6874 31.2047ZM13.8844 25.2241C7.39633 25.2241 2.13675 20.0481 2.13675 13.6631C2.13675 7.27816 7.39633 2.10215 13.8844 2.10215C20.3725 2.10215 25.632 7.27816 25.632 13.6631C25.632 20.0481 20.3725 25.2241 13.8844 25.2241Z" fill="white"/>
</g>
<defs>
<clipPath id="clip0_1_756">
<rect width="33" height="33" rx="6" fill="white"/>
</clipPath>
</defs>
</svg>
